HIERARCHY
ROOT Hips
{
	OFFSET -0.001795 -0.223333 0.028219
	CHANNELS 6 Xposition Yposition Zposition Zrotation Yrotation Xrotation 
	JOINT LeftUpLeg
	{
		OFFSET 0.069520 -0.091406 -0.006815
		CHANNELS 3 Zrotation Yrotation Xrotation
		JOINT LeftLeg
		{
			OFFSET 0.034277 -0.375199 -0.004496
			CHANNELS 3 Zrotation Yrotation Xrotation
			JOINT LeftFoot
			{
				OFFSET -0.013596 -0.397961 -0.043693
				CHANNELS 3 Zrotation Yrotation Xrotation
				JOINT LeftToe
				{
					OFFSET 0.026358 -0.055791 0.119288
					CHANNELS 3 Zrotation Yrotation Xrotation
					End Site
					{
						OFFSET 0.000000 0.000000 0.000000
					}
				}
			}
		}
	}
	JOINT RightUpLeg
	{
		OFFSET -0.067670 -0.090522 -0.004320
		CHANNELS 3 Zrotation Yrotation Xrotation
		JOINT RightLeg
		{
			OFFSET -0.038290 -0.382569 -0.008850
			CHANNELS 3 Zrotation Yrotation Xrotation
			JOINT RightFoot
			{
				OFFSET 0.015774 -0.398415 -0.042312
				CHANNELS 3 Zrotation Yrotation Xrotation
				JOINT RightToe
				{
					OFFSET -0.025372 -0.048144 0.123348
					CHANNELS 3 Zrotation Yrotation Xrotation
					End Site
					{
						OFFSET 0.000000 0.000000 0.000000
					}
				}
			}
		}
	}
	JOINT Spine
	{
		OFFSET -0.002533 0.108963 -0.026696
		CHANNELS 3 Zrotation Yrotation Xrotation
		JOINT Spine1
		{
			OFFSET 0.005487 0.135180 0.001092
			CHANNELS 3 Zrotation Yrotation Xrotation
			JOINT Spine2
			{
				OFFSET 0.001457 0.052922 0.025425
				CHANNELS 3 Zrotation Yrotation Xrotation
				JOINT Neck
				{
					OFFSET -0.002778 0.213870 -0.042857
					CHANNELS 3 Zrotation Yrotation Xrotation
					JOINT Head
					{
						OFFSET 0.005152 0.064970 0.051349
						CHANNELS 3 Zrotation Yrotation Xrotation
						End Site
						{
							OFFSET 0.000000 0.000000 0.000000
						}
					}
				}
				JOINT LeftShoulder
				{
					OFFSET 0.078845 0.121749 -0.034090
					CHANNELS 3 Zrotation Yrotation Xrotation
					JOINT LeftArm
					{
						OFFSET 0.090977 0.030469 -0.008868
						CHANNELS 3 Zrotation Yrotation Xrotation
						JOINT LeftForeArm
						{
							OFFSET 0.259612 -0.012772 -0.027456
							CHANNELS 3 Zrotation Yrotation Xrotation
							JOINT LeftHand
							{
								OFFSET 0.249234 0.008986 -0.001171
								CHANNELS 3 Zrotation Yrotation Xrotation
								End Site
								{
									OFFSET 0.000000 0.000000 0.000000
								}
							}
						}
					}
				}
				JOINT RightShoulder
				{
					OFFSET -0.081759 0.118833 -0.038615
					CHANNELS 3 Zrotation Yrotation Xrotation
					JOINT RightArm
					{
						OFFSET -0.096012 0.032551 -0.009143
						CHANNELS 3 Zrotation Yrotation Xrotation
						JOINT RightForeArm
						{
							OFFSET -0.253742 -0.013329 -0.021401
							CHANNELS 3 Zrotation Yrotation Xrotation
							JOINT RightHand
							{
								OFFSET -0.255298 0.007772 -0.005559
								CHANNELS 3 Zrotation Yrotation Xrotation
								End Site
								{
									OFFSET 0.000000 0.000000 0.000000
								}
							}
						}
					}
				}
			}
		}
	}
}
MOTION
Frames: 6
Frame Time: 0.050000
-0.001305 0.954611 -0.001463 0.158528 6.611121 4.730305 5.044550 -0.071061 3.031460 -5.028264 0.188059 -15.136463 0.343092 7.981360 18.853990 0.000000 0.000000 0.000000 -5.484588 -0.017874 2.197835 5.023043 -0.611670 -11.092631 -8.406003 -19.617871 20.495933 0.000000 0.000000 0.000000 -1.898571 -0.168483 7.537779 8.897295 -1.546200 -22.737657 2.790112 6.153895 25.868102 1.504447 1.061741 -12.684679 0.000000 0.000000 0.000000 -18.228537 8.540884 -8.090048 -56.968715 -6.332166 -5.991672 -25.543830 -22.469103 5.689551 0.000000 0.000000 0.000000 5.747253 4.641711 2.415918 40.876109 38.760927 7.728232 -17.905315 26.645712 -2.082249 0.000000 0.000000 0.000000 
-0.002146 0.954382 -0.002920 0.362958 6.892986 4.843866 4.838339 -0.070825 2.793420 -5.042733 0.177775 -15.152431 0.092706 7.630001 18.706047 0.000000 0.000000 0.000000 -5.453831 -0.009616 2.001445 4.843843 -0.609490 -10.839332 -8.576695 -19.859540 20.206357 0.000000 0.000000 0.000000 -1.614399 -0.208745 7.960907 9.008388 -1.580980 -22.615957 2.978518 6.318057 25.705776 2.130659 0.620127 -12.602199 0.000000 0.000000 0.000000 -18.234967 7.729338 -7.736315 -56.899264 -6.820500 -5.735531 -25.681649 -23.150122 5.872370 0.000000 0.000000 0.000000 5.904455 5.609978 2.874842 40.747392 39.881444 8.166496 -17.935453 23.401631 -1.809633 0.000000 0.000000 0.000000 
-0.003153 0.953934 -0.004138 0.600238 7.023672 4.928670 4.680477 -0.067687 2.656773 -5.104855 0.169536 -15.202650 0.053138 7.613696 18.776314 0.000000 0.000000 0.000000 -5.435384 0.002868 1.770662 4.580007 -0.600628 -10.575114 -8.711862 -20.055452 20.110455 0.000000 0.000000 0.000000 -1.485339 -0.236628 8.392203 9.132258 -1.636572 -22.360931 3.239118 6.573402 25.417689 2.427615 0.426592 -12.508390 0.000000 0.000000 0.000000 -18.074177 7.321291 -7.552665 -56.962491 -7.287242 -5.493056 -25.894019 -23.756413 6.044297 0.000000 0.000000 0.000000 6.037910 6.205380 3.174945 41.468236 40.739865 8.788275 -17.693412 21.682065 -1.610968 0.000000 0.000000 0.000000 
-0.004190 0.953500 -0.004973 0.612739 7.323861 4.904943 4.763730 -0.082146 2.520924 -5.100410 0.159324 -15.213286 -0.109126 7.440685 18.816331 0.000000 0.000000 0.000000 -5.106798 0.002522 1.549483 4.179281 -0.588964 -10.313654 -8.992961 -20.438473 20.405296 0.000000 0.000000 0.000000 -1.241592 -0.277369 8.770890 9.416382 -1.717500 -22.262662 3.433952 6.828046 25.216012 2.811132 0.234386 -12.796884 0.000000 0.000000 0.000000 -17.823546 6.844475 -7.326459 -57.062738 -7.897319 -5.206582 -25.927234 -23.933700 6.060410 0.000000 0.000000 0.000000 6.177392 6.620623 3.409762 42.195888 41.252113 9.291108 -17.299451 20.053883 -1.404595 0.000000 0.000000 0.000000 
-0.005295 0.953585 -0.005336 0.693048 7.374082 4.999191 4.783988 -0.093487 2.303885 -5.066863 0.167983 -14.915697 -0.219772 7.257035 18.687196 0.000000 0.000000 0.000000 -5.093138 0.015969 1.335556 4.157074 -0.585595 -10.105584 -8.860483 -20.229042 20.298051 0.000000 0.000000 0.000000 -1.059172 -0.298985 8.861857 9.446972 -1.742713 -22.066501 3.619096 7.054819 25.186955 3.019156 0.088471 -12.627911 0.000000 0.000000 0.000000 -17.437167 6.575595 -7.128748 -57.134831 -8.181133 -5.103196 -26.166194 -24.582185 6.261684 0.000000 0.000000 0.000000 6.509862 6.880472 3.600334 43.130081 41.123368 9.536096 -17.577115 19.610500 -1.379082 0.000000 0.000000 0.000000 
-0.006325 0.953805 -0.005168 0.733981 7.754066 4.977428 4.794277 -0.095515 2.376153 -5.045514 0.148760 -15.174883 -0.340617 7.251018 19.058988 0.000000 0.000000 0.000000 -4.916518 0.005874 1.342285 4.049502 -0.585672 -9.995366 -9.061395 -20.477931 20.607158 0.000000 0.000000 0.000000 -0.958132 -0.324607 9.156870 9.615317 -1.776955 -22.115190 3.710547 7.036700 25.125976 3.326349 -0.170544 -12.293593 0.000000 0.000000 0.000000 -17.048523 6.374684 -6.955430 -57.620322 -8.471475 -5.040679 -26.182984 -25.071898 6.380840 0.000000 0.000000 0.000000 6.697781 6.636145 3.546319 44.082093 40.835126 9.726416 -18.061023 19.705256 -1.415290 0.000000 0.000000 0.000000 
